<?xml version="1.0"?>
<svg xmlns="http://www.w3.org/2000/svg" xmlns:xlink="http://www.w3.org/1999/xlink" xmlns:svgjs="http://svgjs.com/svgjs" version="1.1" width="512" height="512" x="0" y="0" viewBox="0 0 512 512" style="enable-background:new 0 0 512 512" xml:space="preserve" class=""><g><g xmlns="http://www.w3.org/2000/svg"><circle cx="256" cy="256" fill="#005eb8" r="256" data-original="#7ca1dc" style="" class=""/><path d="m122.976 37.236c-73.738 44.934-122.976 126.098-122.976 218.764 0 141.385 114.615 256 256 256 81.522 0 154.139-38.11 201.022-97.481-378.207 14.617-378.708-258.981-334.046-377.283z" fill="#00478b" data-original="#5a8bd5" style="" class=""/><path d="m0 256c0 20.555 2.438 40.538 7.013 59.691h497.973c4.576-19.153 7.014-39.136 7.014-59.691s-2.438-40.538-7.013-59.691h-497.974c-4.575 19.153-7.013 39.136-7.013 59.691z" fill="#557899" data-original="#cde9fa" style="" class=""/><path d="m106.442 196.309h-99.44c-4.575 19.152-7.002 39.137-7.002 59.691 0 20.555 2.438 40.538 7.013 59.691h150.683c-29.521-35.788-45.044-77.667-51.254-119.382z" fill="#557899" data-original="#a2ddfd" style="" class=""/><circle cx="256" cy="256" fill="#f6ee86" r="206.48" data-original="#f6ee86" style="" class=""/><path d="m234.305 71.215c114.036 0 206.48 92.444 206.48 206.48 0 51.496-18.855 98.586-50.034 134.751 43.921-37.865 71.729-93.907 71.729-156.446 0-114.036-92.444-206.48-206.48-206.48s-206.48 92.444-206.48 206.48 92.444 206.48 206.48 206.48c50.688 0 97.101-18.276 133.035-48.583-248.249-15.305-296.327-176.53-284.179-297.052 35.412-28.536 80.431-45.63 129.449-45.63z" fill="#eed076" data-original="#eed076" style="" class=""/><g fill="#4e5660"><circle cx="256" cy="256" r="39.369" fill="#4e5660" data-original="#4e5660" style="" class=""/><path d="m420.984 276.64c-5.651 45.631-29.793 85.532-64.701 111.972-8.773 6.645-21.408 4.01-26.911-5.521l-31.293-54.195c-2.252-3.899-1.239-8.895 2.404-11.541 16.95-12.311 28.604-31.479 30.886-53.428.469-4.506 4.269-7.926 8.799-7.926h62.586c11.044-.001 19.587 9.679 18.23 20.639z" fill="#4e5660" data-original="#4e5660" style="" class=""/><path d="m213.921 328.896-31.293 54.195c-5.503 9.531-18.138 12.167-26.911 5.521-34.908-26.44-59.05-66.341-64.701-111.972-1.357-10.96 7.186-20.64 18.23-20.64h62.586c4.53 0 8.331 3.42 8.799 7.926 2.282 21.949 13.936 41.117 30.886 53.428 3.643 2.647 4.655 7.642 2.404 11.542z" fill="#4e5660" data-original="#4e5660" style="" class=""/></g><path d="m122.427 256h-13.181c-11.044 0-19.587 9.68-18.23 20.64 5.651 45.631 29.793 85.532 64.701 111.972 8.773 6.645 21.408 4.01 26.911-5.521l16.481-28.543c-37.493-27.35-61.88-61.768-76.682-98.548z" fill="#383c43" data-original="#383c43" style="" class=""/><path d="m329.384 128.888-31.299 54.205c-2.248 3.893-7.076 5.532-11.18 3.698-19.603-8.76-42.177-8.775-61.812 0-4.103 1.834-8.931.193-11.179-3.699l-31.298-54.204c-5.512-9.546-1.443-21.8 8.712-26.087 41.231-17.407 88.046-17.437 129.34-.002 10.157 4.288 14.229 16.541 8.716 26.089z" fill="#4e5660" data-original="#4e5660" style="" class=""/></g></g></svg>
